<svg id="Flat" height="512" viewBox="0 0 64 64" width="512" xmlns="http://www.w3.org/2000/svg"><path d="m51 40-8.49161-20.75727a2 2 0 0 0 -1.85109-1.24273h-17.38809a2 2 0 0 0 -1.80964 1.14841l-7.45957 15.85159v20h37z" fill="#6f6f6f"/><path d="m32 50 7.39951-9.24939a2 2 0 0 1 1.56174-.75061h11.96838a2 2 0 0 1 1.6641.8906l4.81254 7.2188a2 2 0 0 0 1.6641.8906h.92963v13h-30z" fill="#7c7c7c"/><path d="m38 62v-2.11831a6 6 0 0 0 -1.07457-3.42638l-14.32865-20.59744a2 2 0 0 0 -1.64178-.85787h-11.01825a2 2 0 0 0 -1.53644.71963l-3.80062 4.56074a2 2 0 0 1 -1.53644.71963h-1.06325v21z" fill="#898989"/><g fill="#ffa742"><path d="m42.50836 19.24274a1.99989 1.99989 0 0 0 -1.85107-1.24274h-17.38806a1.99994 1.99994 0 0 0 -1.80964 1.14838l-1.8125 3.85162h4.35291a2 2 0 0 1 2 2v7a2 2 0 0 0 4 0v-7a2 2 0 0 1 4 0v1a2 2 0 0 0 4 0v-1a2 2 0 0 1 2-2h4.04541z"/><path d="m8 39a2 2 0 0 1 2 2v11a2 2 0 0 0 4 0v-11a2 2 0 0 1 4 0v2a2 2 0 0 0 4 0v-2a2 2 0 0 1 2-2h.78265l-2.18585-3.14215a2.00009 2.00009 0 0 0 -1.6418-.85785h-11.01823a1.99986 1.99986 0 0 0 -1.53644.7196l-2.7337 3.2804z"/><path d="m38 44a2 2 0 0 1 2 2v4a2 2 0 0 0 4 0v-4a2 2 0 0 1 4 0v12a2 2 0 0 0 4 0v-12a2 2 0 0 1 2-2h2.66669l-2.07294-3.10944a2.00007 2.00007 0 0 0 -1.66412-.89056h-11.96839a1.99992 1.99992 0 0 0 -1.5617.75061l-2.59954 3.24939z"/><path d="m31 2h2v3h-2z"/><path d="m15.797 8.297h2v3h-2z" transform="matrix(.707 -.707 .707 .707 -2.008 14.747)"/><path d="m9 24h3v2h-3z"/><path d="m52 24h3v2h-3z"/><path d="m45.703 8.797h3v2h-3z" transform="matrix(.707 -.707 .707 .707 6.898 36.247)"/><path d="m22.772 3.637h2v3h-2z" transform="matrix(.924 -.383 .383 .924 -.156 9.492)"/><path d="m11.137 15.272h2v3h-2z" transform="matrix(.383 -.924 .924 .383 -8.004 21.564)"/><path d="m50.363 15.772h3v2h-3z" transform="matrix(.924 -.383 .383 .924 -2.47 21.131)"/><path d="m38.728 4.137h3v2h-3z" transform="matrix(.383 -.924 .924 .383 20.083 40.334)"/></g></svg>